<svg xmlns="http://www.w3.org/2000/svg" width="100" height="100" fill="none"><path fill="#3D2101" d="M100 50c0-27.614-22.386-50-50-50S0 22.386 0 50s22.386 50 50 50 50-22.386 50-50"/><path stroke="#FECF0A" stroke-width="2.918" d="M49.627 94.007c24.22 0 43.856-19.635 43.856-43.856S73.848 6.295 49.627 6.295 5.77 25.93 5.77 50.15s19.635 43.856 43.856 43.856Z"/><path fill="#FF8C45" d="M34.673 52.536a12 12 0 0 0 1.81-.588 8.8 8.8 0 0 0 1.55-.879q.428 1.944-.31 3.141-.717 1.16-2.562 1.597a15 15 0 0 1-2.002.315q-1.095.1-2.845.131l.428 20.412-4.357 1.032-.45-21.045-.363.086q-2.934.695-3.967 2.538-1.01 1.805-.272 4.92.136.576.297.985.191.402.466.752.09.107.103.167.037.024.045.053-1.694.402-2.646-.107-.928-.548-1.287-2.06-.852-3.6 1.338-6.356 2.214-2.793 7.115-3.954a20 20 0 0 1 1.927-.361 32 32 0 0 1 2.455-.294 28 28 0 0 0 2.03-.194q.741-.111 1.497-.29Zm0 18.277q-.408-1.725-.323-3.79.117-2.073.726-3.814.696-2.05 2.054-3.331 1.352-1.311 3.287-1.77 1.937-.458 3.191.523 1.256.98 1.829 3.4l.135.032.212-.05q.938-.222 2.117-1.045a12 12 0 0 0 2.112-1.874l.466.752q-.633 1.109-1.896 2.111-1.234.995-2.864 1.67.605 4.17-.797 7.153-1.401 2.985-4.276 3.666-2.36.559-3.886-.357-1.528-.916-2.087-3.276m6.424-10.916q-1.452.344-2.058 3.587-.575 3.236.049 5.867.336 1.422.761 1.865.454.436 1.362.22 1.12-.265 1.688-2.317.599-2.06.33-4.807-.444.009-.728-.243-.26-.29-.39-.834a2.03 2.03 0 0 1 .006-1.056q.142-.48.545-.8-.29-.954-.655-1.283-.336-.335-.91-.2Zm7.841 8.813a7 7 0 0 1-.147-.891q-.06-.53-.076-1.132l-.245-10.2 4.357-1.032.26 10.803q.012.188.032.407.012.19.056.37.15.636.448.949.32.275.775.168.786-.187 1.234-.996.47-.845.555-2.24l-.244-10.199 4.357-1.032.259 10.802q.018.347.03.664.033.28.077.46.114.486.42.7.33.177.845.055 1.059-.25 1.799-1.576.763-1.363 1.1-3.584.26-1.596.244-3.285t-.304-2.9q-.031.136-.343.306a2 2 0 0 1-.553.227q-.484.114-.894-.268a2.07 2.07 0 0 1-.561-1.017q-.18-.756.204-1.295.408-.576 1.285-.783.938-.223 1.586.359.65.58.943 1.821.487 2.057.48 4.455.017 2.361-.453 4.421-.644 2.677-2.044 4.319t-3.458 2.13q-1.512.357-2.6-.055-1.066-.45-1.632-1.627-.577 1.479-1.485 2.365-.878.879-2.21 1.195-1.511.359-2.611-.372-1.077-.767-1.486-2.492m27.645-6.327a10 10 0 0 1-.201-1.39 62 62 0 0 1-.042-2.738q.015-1.826-.043-2.61a8.5 8.5 0 0 0-.18-1.3q-.18-.755-.545-1.084t-.91-.2q-.726.172-1.182 1.079-.433.87-.518 2.264l.244 10.198-4.356 1.033-.378-15.887 4.356-1.032.04 1.652q.555-1.026 1.333-1.658a4.45 4.45 0 0 1 1.805-.875q1.605-.38 2.69.29t1.479 2.333q.165.696.212 1.707.072.974.053 3.054a45 45 0 0 0 .002 2.3q.03.665.13 1.088.15.636.532.897.374.23.98.087a1.88 1.88 0 0 0 1.178-.823q.423-.642.732-2.442l1.27-.3q-.3 3.042-1.363 4.764-1.032 1.714-2.937 2.166-1.695.401-2.847-.284-1.16-.716-1.534-2.289"/><path fill="#FAB037" d="m24.107 25.686-1.503-1.235-.009.011zm7.551-2.363-.763 1.79.01.004.01.004zm1.585 4.268-1.748-.855-.009.019-.009.019zm-2.159 1.17-.375 1.909.03.006.031.005zm-.646-.305-1.358-1.392-1.61 1.571 1.788 1.366zm.637-1.183-1.878-.507-.008.03-.007.032zm-.8-2.648-.975 1.683.024.014.024.013.928-1.71Zm-3.298.954-1.635-1.055-.01.017-.01.017zm.699 3.675-1.43 1.319.009.01.009.009zm2.656 1.778-.917 1.715.01.005zm3.594 2.587-1.502 1.236.005.006.005.006zm-6.745 2.86-.777 1.783.024.01.025.01zm1.014 1.135.449 1.893 2.018-.479-.607-1.984zm-2.146 1.225-1.5-1.238-.01.011-.008.011zm.842-5.158 1.092-1.61-.01-.005-.008-.006zm-2.787-2.205-1.506 1.231.02.025.021.024zm-.964-1.892 1.892-.449c-.178-.753-.045-1.444.588-2.226l-1.513-1.223-1.512-1.224c-1.318 1.63-1.83 3.537-1.348 5.57zm.967-3.898 1.504 1.234c.68-.829 1.665-1.448 3.094-1.787l-.448-1.892-.449-1.893c-2.116.502-3.898 1.513-5.204 3.103zm4.15-2.445.448 1.893c1.148-.272 1.819-.18 2.19-.022l.763-1.789.763-1.789c-1.414-.603-3.01-.566-4.613-.186zm3.401.082-.743 1.798c.273.112.47.282.59.79l1.892-.45 1.893-.448c-.377-1.59-1.34-2.847-2.889-3.487zm1.74 2.139-1.893.448c.115.485.044.715-.01.826l1.748.855 1.747.854c.538-1.1.571-2.288.3-3.432l-1.893.449Zm-.155 2.129-1.766-.817a.2.2 0 0 1-.023.042l.008-.008-.004.002-.085.027.449 1.893.448 1.892c1.224-.29 2.198-1.048 2.738-2.215zm-1.421 1.139-.449-1.893-.009.002a.1.1 0 0 1 .034.003l-.314 1.92-.314 1.919a3.8 3.8 0 0 0 1.5-.059zm-.738.031.375-1.908c.12.023.175.068.16.057l-1.18 1.546L29.257 30a3.5 3.5 0 0 0 1.451.669zm-.646-.305 1.359 1.392c.613-.598.986-1.34 1.172-2.13l-1.894-.445-1.893-.445c-.043.18-.094.228-.102.236zm.637-1.183 1.878.507A4.8 4.8 0 0 0 33 25.384l-1.893.449-1.892.448a.95.95 0 0 1-.017.485l1.878.507Zm.032-1.44 1.892-.449c-.23-.97-.773-1.914-1.795-2.468l-.928 1.71-.928 1.709a.5.5 0 0 1-.155-.136c-.024-.035-.004-.023.02.082l1.893-.448Zm-.831-1.208.976-1.682c-.991-.575-2.082-.57-3.033-.345l.449 1.892.448 1.893a1 1 0 0 1 .28-.036q.011.002-.02-.006a.4.4 0 0 1-.076-.033zm-1.608-.135-.449-1.892c-1.143.27-2.193.867-2.877 1.926l1.635 1.055 1.634 1.055c.015-.024.092-.153.505-.25zm-1.691 1.089-1.656-1.021c-.67 1.085-.727 2.303-.457 3.442l1.892-.449 1.893-.448a1.3 1.3 0 0 1-.043-.412.2.2 0 0 1 .026-.09zm-.22 1.972L24.863 28c.23.974.704 1.838 1.382 2.573l1.43-1.32 1.43-1.318a1.8 1.8 0 0 1-.457-.832l-1.893.448Zm.919 1.703-1.412 1.338c.692.73 1.825 1.446 3.151 2.155l.917-1.715.917-1.716c-1.298-.694-1.937-1.163-2.162-1.4zm2.656 1.778-.907 1.72c1.657.874 2.578 1.59 2.999 2.103l1.502-1.236 1.502-1.236c-.92-1.119-2.395-2.127-4.188-3.072zm3.594 2.587-1.492 1.248c.452.541.794 1.219.998 2.08l1.893-.45 1.892-.448c-.327-1.383-.918-2.624-1.799-3.678zm1.399 2.879-1.893.448c.372 1.57.116 2.793-.655 3.856l1.574 1.142 1.575 1.142c1.504-2.073 1.897-4.482 1.291-7.037zm-.974 5.446-1.574-1.142c-.817 1.126-2.06 1.953-3.918 2.394l.448 1.893.449 1.892c2.592-.614 4.711-1.883 6.17-3.895zm-5.044 3.145-.448-1.893c-1.496.354-2.518.234-3.227-.095l-.82 1.763-.821 1.764c1.74.81 3.714.84 5.765.353zm-4.495-.225.82-1.763c-.61-.284-1.057-.776-1.291-1.765l-1.893.448-1.892.449c.468 1.978 1.597 3.539 3.435 4.395l.82-1.764Zm-2.364-3.08 1.893-.448c-.212-.897-.096-1.539.204-2.065l-1.689-.965-1.689-.965c-.86 1.506-1.016 3.183-.611 4.892zm.408-3.478 1.69.965c.323-.566.725-.857 1.285-.99l-.448-1.892-.449-1.893c-1.646.39-2.928 1.378-3.767 2.845zm2.527-1.917.448 1.892c.389-.091.54-.033.573-.02l.777-1.782.777-1.784c-.99-.43-2.037-.433-3.024-.199zm1.798.09-.728 1.803c.003.001-.009-.003-.028-.016a.4.4 0 0 1-.097-.103l.007.02 1.86-.57 1.86-.569c-.33-1.077-1.06-1.931-2.146-2.37zm1.014 1.135-.448-1.893c-1.247.296-2.376.883-3.198 1.88l1.5 1.238 1.5 1.238c.158-.191.46-.42 1.095-.57zm-2.146 1.225-1.518-1.215c-.88 1.1-1.112 2.419-.8 3.741l1.894-.448 1.892-.449a.7.7 0 0 1-.022-.278.3.3 0 0 1 .073-.136zm-.424 2.078-1.893.448c.28 1.186.928 2.21 1.99 2.893l1.052-1.636 1.052-1.636c-.11-.07-.23-.183-.309-.517zm1.149 1.705-1.052 1.636c1.108.713 2.36.827 3.573.54l-.448-1.893-.449-1.893c-.378.09-.508.016-.572-.026zm2.073.283.448 1.892c1.433-.34 2.602-1.167 3.313-2.487l-1.713-.922-1.713-.922c-.138.256-.335.44-.784.546zm2.048-1.517 1.713.922c.705-1.31.765-2.77.424-4.209l-1.892.449-1.893.448c.182.768.079 1.201-.065 1.468zm.245-2.838 1.892-.449a7.6 7.6 0 0 0-1.537-3.092l-1.504 1.234-1.504 1.233c.38.464.628.965.76 1.522zm-1.15-2.307 1.505-1.234c-.751-.916-1.98-1.898-3.512-2.937l-1.092 1.61-1.093 1.609c1.474 1 2.312 1.725 2.689 2.185l1.504-1.233Zm-3.1-2.562 1.075-1.621c-1.342-.89-2.082-1.505-2.397-1.864l-1.464 1.28-1.465 1.28c.682.78 1.8 1.635 3.178 2.547l1.074-1.622Zm-2.786-2.205 1.506-1.232c-.32-.39-.494-.757-.578-1.109l-1.892.448-1.893.449c.234.987.701 1.88 1.351 2.675zm12.976 7.07 1.934-.21-.002-.014zm-.069-1.015-1.944.043v.006zm-.318-14.283-.697-1.816-1.278.491.03 1.368zm3.888-1.495 1.945-.044-.064-2.763-2.579.992zm.352 15.393 1.945-.027v-.017zm.028.48 1.937-.176-.002-.017-.002-.017zm.5 1.143-1.022 1.656.092.056.098.047zm2.203-.98 1.635 1.054.01-.016.01-.017zm.593-1.975-.449-1.893-1.398.331-.094 1.434 1.94.128Zm1.14-.27 1.934.205.289-2.731-2.672.633zm-6.852 6.037-1.13 1.584.027.019.027.018 1.075-1.62Zm-1.333-2.235 1.893-.448a5 5 0 0 1-.091-.562l-1.934.21-1.934.21c.04.36.096.709.174 1.039zm-.132-.8 1.932-.224a10 10 0 0 1-.056-.84l-1.945.049-1.944.049q.015.619.081 1.19zm-.069-1.015 1.945-.044-.318-14.283-1.945.044-1.944.043.318 14.283zm-.318-14.283.698 1.815 3.888-1.494-.698-1.816-.698-1.815-3.888 1.494zm3.888-1.495-1.945.045.352 15.393 1.945-.045 1.944-.044-.351-15.393zm.352 15.393-1.945.027q.004.337.039.664l1.934-.21 1.933-.21a3 3 0 0 1-.016-.298zm.028.48-1.938.177q.034.351.114.686l1.893-.449 1.893-.448a1 1 0 0 1-.025-.142zm.069.414-1.893.449c.139.585.467 1.42 1.302 1.936l1.022-1.656 1.02-1.655c.216.133.338.292.396.39.053.091.057.135.046.088zm.43.73-.831 1.758c.813.385 1.651.275 2.2.145l-.449-1.892-.448-1.893c-.092.022-.105.015-.056.016.049 0 .21.01.417.107l-.832 1.758Zm.92.01.449 1.893c1.105-.262 1.916-.972 2.47-1.83l-1.635-1.054-1.634-1.055a.7.7 0 0 1-.138.17l.009-.005.03-.011zm1.284-.991 1.656 1.02c.535-.868.81-1.843.878-2.867l-1.941-.128-1.941-.128c-.032.49-.153.83-.307 1.081zm.593-1.975.448 1.893 1.14-.27-.448-1.893-.449-1.893-1.14.27zm1.14-.27-1.935-.205c-.165 1.56-.57 2.64-1.093 3.37l1.581 1.133 1.581 1.133c1.028-1.434 1.587-3.22 1.8-5.226zm-1.447 4.298-1.58-1.134c-.51.71-1.133 1.125-1.931 1.314l.449 1.892.448 1.893c1.734-.41 3.153-1.378 4.195-2.832zm-3.062 2.072-.449-1.892c-.482.114-.69.024-.819-.061l-1.075 1.62-1.076 1.62c1.186.788 2.54.92 3.867.606zm-2.343-.333 1.129-1.584c-.146-.104-.396-.369-.569-1.1l-1.893.45-1.892.448c.315 1.331.954 2.556 2.095 3.37zm9.06-17.967-1.633-1.056-.011.017-.011.018 1.655 1.02Zm-3.759-2.32 1.656 1.022.01-.018.01-.017zm3.04-.72-1.057 1.634.035.023.036.02.985-1.676Zm-2.704 16.29 1.934-.21-.002-.015-1.932.224Zm-.069-1.016-1.944.046v.003zm-.218-9.148-.449-1.893-1.534.364.038 1.576zm3.907-.926 1.945-.047-.058-2.4-2.335.554zm.233 9.69 1.945-.028v-.02l-1.945.047Zm.028.48L50 35.767l-.002-.017-.002-.017-1.933.21Zm.5 1.142-1.022 1.656.092.056.097.046zm2.203-.98 1.635 1.054.01-.016.01-.017zm.593-1.975-.449-1.893-1.398.331-.094 1.434 1.94.128Zm1.14-.27 1.934.205.289-2.731-2.672.633.448 1.893Zm-6.852 6.037-1.13 1.584.027.019.027.018zm2.25-17.958-1.893.448a.4.4 0 0 1 .01.067v.018l-.007.02a.4.4 0 0 1-.035.065l1.633 1.056 1.634 1.056c.621-.96.815-2.061.55-3.179zm-.291 1.674-1.656-1.021a.2.2 0 0 1-.06.073.3.3 0 0 1-.105.04l.449 1.892.448 1.893a4.07 4.07 0 0 0 2.579-1.856l-1.656-1.021Zm-1.372.984-.449-1.893a.3.3 0 0 1-.112.012.2.2 0 0 1-.086-.038l-1.02 1.655-1.022 1.656a4.07 4.07 0 0 0 3.137.5zm-1.668-.264 1.021-1.655a.2.2 0 0 1-.072-.06.3.3 0 0 1-.04-.105l-1.893.448-1.893.449a4.07 4.07 0 0 0 1.856 2.579zm-.984-1.372 1.893-.448a.3.3 0 0 1-.012-.112c.001-.005.005-.031.039-.086l-1.656-1.021-1.655-1.021a4.07 4.07 0 0 0-.502 3.137zm.264-1.667 1.677.986a.4.4 0 0 1 .057-.076l.016-.008a.4.4 0 0 1 .064-.02l-.449-1.893-.448-1.893a4.03 4.03 0 0 0-2.594 1.918zm1.365-1.012.449 1.893a.4.4 0 0 1 .067-.01h.017l.02.007a.4.4 0 0 1 .065.035l1.056-1.633 1.056-1.634a4.03 4.03 0 0 0-3.178-.55zm1.674.292-.985 1.677a.4.4 0 0 1 .075.057l.008.015q.008.014.02.064l1.894-.448 1.892-.449a4.03 4.03 0 0 0-1.918-2.593zm-2.57 17.088 1.892-.448a5 5 0 0 1-.091-.562l-1.934.21-1.934.21c.04.36.096.709.174 1.039l1.892-.449Zm-.133-.8 1.932-.224a10 10 0 0 1-.056-.84l-1.944.049-1.945.049q.015.619.081 1.19zm-.069-1.015 1.945-.047-.219-9.148-1.944.047-1.945.047.219 9.147zm-.218-9.148.448 1.893 3.908-.926-.449-1.893-.448-1.893-3.908.926zm3.907-.926-1.944.047.232 9.689 1.945-.047 1.944-.046-.232-9.69zm.233 9.69-1.945.026q.004.336.039.664l1.934-.21 1.933-.21a3 3 0 0 1-.016-.298zm.028.48-1.938.176q.034.351.114.686l1.893-.449 1.893-.448a1 1 0 0 1-.025-.142zm.069.413-1.893.449c.139.586.467 1.42 1.302 1.936l1.022-1.656 1.02-1.655c.216.133.338.292.396.39.053.091.057.135.046.088zm.43.73-.832 1.757c.814.386 1.652.276 2.2.146l-.448-1.892-.448-1.893c-.092.022-.105.015-.056.016.049 0 .21.01.417.107l-.832 1.758Zm.92.01.449 1.893c1.105-.262 1.916-.972 2.47-1.83l-1.635-1.054-1.634-1.055a.7.7 0 0 1-.138.17.2.2 0 0 1 .04-.016zm1.284-.991 1.656 1.02c.536-.868.81-1.843.878-2.867l-1.941-.128-1.941-.128c-.032.49-.153.83-.307 1.081zm.593-1.975.448 1.893 1.14-.27-.449-1.893-.448-1.893-1.14.27zm1.14-.27-1.935-.205c-.165 1.56-.57 2.64-1.093 3.37l1.581 1.133 1.581 1.133c1.028-1.434 1.587-3.22 1.8-5.226l-1.935-.205Zm-1.447 4.298-1.58-1.134c-.51.71-1.133 1.125-1.931 1.314l.449 1.892.448 1.893c1.734-.41 3.153-1.378 4.195-2.832zM47.99 40.23l-.448-1.892c-.482.114-.69.024-.819-.061l-1.075 1.62-1.076 1.62c1.186.788 2.54.92 3.867.606zm-2.342-.333 1.129-1.584c-.146-.104-.396-.369-.569-1.1l-1.893.45-1.892.448c.315 1.331.954 2.556 2.095 3.37zM59 27.047l-1.783-.777-.004.007-.003.008zm-1.936.659-1.93-.245-.194 1.532 1.447.537zm-.436-2.447-1.356 1.394.03.03.032.029zm-2.319 3.157 1.92.313.001-.007zm.92 7.148-1.208 1.525.025.019.024.018zm3.868-.974 1.292 1.454.006-.006.007-.006zm1.955-2.756-.449-1.893-.856.203-.413.777zm.922-.219 1.846.612 1.098-3.308-3.392.803zm-2.519 4.61 1.419 1.33.007-.007.006-.007zM52.27 38.07l-1.042 1.642.01.007.011.006zm-2.14-6.37-1.943-.081-.001.014v.014zm.597-3.41 1.845.617.001-.004-1.846-.612Zm1.809-3.007 1.346 1.404.008-.008zm5.328-1.463-.891 1.729.018.009.018.009zm1.197 1.665-1.893.448c.083.351.016.414.05.337l1.783.777 1.783.776c.405-.93.378-1.907.17-2.787zM59 27.047l-1.79-.762a.7.7 0 0 1 .186-.238.64.64 0 0 1 .247-.133l.448 1.893.449 1.892a3.19 3.19 0 0 0 2.25-1.89L59 27.046Zm-.909.76-.448-1.893c.092-.022.146-.017.14-.017l-.172 1.938-.174 1.937c.347.03.72.018 1.103-.073zm-.48.027.172-1.937c.02.002.007.003-.042-.015l-.677 1.824-.677 1.824c.329.121.68.209 1.05.242zm-.547-.128 1.93.245q.079-.613.059-1.213l-1.944.069-1.944.069a4 4 0 0 1-.03.585zm.045-.9 1.944-.068c-.014-.39-.06-.78-.15-1.159l-1.893.449-1.892.448c.021.091.04.222.047.4zm-.099-.778 1.893-.449c-.124-.524-.379-1.236-.982-1.773l-1.293 1.453-1.294 1.453a1 1 0 0 1-.225-.281c-.019-.038-.01-.031.009.045zm-.383-.77 1.357-1.394c-.692-.672-1.602-.861-2.446-.661l.449 1.892.449 1.893a1.3 1.3 0 0 1-1.164-.335l1.356-1.394Zm-.64-.163-.449-1.892c-1.193.282-1.9 1.189-2.304 1.987-.41.812-.67 1.82-.846 2.92l1.921.306 1.921.306c.148-.926.328-1.483.477-1.778.156-.309.126-.05-.271.044zm-1.678 3.321-1.92-.313c-.36 2.21-.337 4.301.122 6.242l1.893-.449 1.893-.448c-.32-1.352-.362-2.915-.068-4.72zm.095 5.48-1.893.449c.22.927.62 2.038 1.51 2.744l1.208-1.525 1.208-1.525c.117.093.12.148.065.036a3 3 0 0 1-.205-.627zm.825 1.668-1.159 1.562c1.06.787 2.33.704 3.276.48l-.448-1.893-.449-1.893a2 2 0 0 1-.329.05h-.02s.008 0 .023.004a.8.8 0 0 1 .267.128l-1.159 1.562Zm1.669.149.448 1.892a6.9 6.9 0 0 0 3.043-1.561l-1.292-1.454-1.293-1.454c-.36.32-.798.552-1.355.684zm2.199-1.123 1.305 1.442c.873-.79 1.65-1.936 2.367-3.285l-1.717-.913-1.718-.913c-.63 1.187-1.157 1.877-1.543 2.227zm1.955-2.756.448 1.893.923-.22-.449-1.892-.448-1.892-.923.218zm.922-.219-1.846-.612c-.588 1.773-1.31 3.041-2.105 3.905l1.432 1.316 1.432 1.317c1.272-1.384 2.229-3.188 2.934-5.314zm-2.519 4.61-1.418-1.331a5.43 5.43 0 0 1-2.784 1.617l.449 1.893.448 1.892a9.3 9.3 0 0 0 4.724-2.74zm-3.754 2.179-.448-1.893c-1.077.255-1.646.1-1.962-.096l-1.022 1.656-1.02 1.655c1.473.91 3.192.975 4.901.57zm-3.432-.333 1.042-1.643c-.298-.189-.702-.643-.972-1.784l-1.893.448-1.893.449c.407 1.717 1.218 3.248 2.674 4.172zm-1.823-2.979 1.893-.448c-.2-.843-.295-1.803-.266-2.892L50.13 31.7l-1.944-.053c-.037 1.373.08 2.675.368 3.894l1.893-.449ZM50.13 31.7l1.944.08c.044-1.076.216-2.03.498-2.873l-1.845-.616-1.845-.616c-.411 1.23-.637 2.55-.695 3.944l1.943.08Zm.597-3.41 1.846.613c.332-1 .784-1.713 1.31-2.216l-1.347-1.404-1.346-1.404c-1.063 1.019-1.817 2.313-2.31 3.8zm1.809-3.007 1.354 1.396c.546-.53 1.203-.891 2.016-1.084l-.449-1.893-.448-1.893c-1.467.348-2.758 1.04-3.828 2.078zm2.921-1.58.449 1.892c.758-.18 1.031-.065 1.067-.046l.89-1.73.892-1.728c-1.183-.61-2.515-.574-3.746-.282l.448 1.893Zm2.407.117-.855 1.747c.01.005.014.005.029.026a1 1 0 0 1 .13.34l1.893-.448 1.893-.449c-.292-1.23-.983-2.351-2.235-2.964zm10.724 3.677 1.598 1.11.004-.007.005-.006zm-3.971 2.833-.549-1.866-1.668.49.3 1.713zm.112.719-1.93.236.013.107.025.105zm.915 2.047-1.207 1.525.024.019.025.018zm3.868-.974 1.292 1.454.007-.006.006-.006zm1.955-2.756-.448-1.893-.857.203-.413.777zm.923-.219 1.846.613 1.097-3.31-3.392.805zm-2.52 4.61 1.42 1.33.013-.014-1.432-1.316Zm-7.185 1.846-1.042 1.642.01.007.01.006zm-1.544-9.78-1.846-.612-.004.012-.004.01zm1.81-3.008 1.346 1.404.008-.008zm5.327-1.463-.922 1.712.033.018.034.017zm-3.302 3.361-1.864-.552-.003.01zm-.451 4.263-1.944.069.09 2.545 2.432-.756zm2.4-2.087-1.717-.914-.001.002zm2.576-3.764-1.893.449c.215.908.067 1.811-.627 2.827l1.607 1.096 1.607 1.097c1.235-1.81 1.695-3.822 1.199-5.917zm-.913 4.372-1.598-1.109c-.707 1.019-1.655 1.703-2.922 2.076l.549 1.866.548 1.866c2.09-.614 3.79-1.818 5.02-3.59zm-3.971 2.833-1.916.337c.053.302.084.502.098.618l1.93-.236 1.931-.237a17 17 0 0 0-.128-.819zm.112.719-1.892.448v.003l.001.002v.004l.001.001v.002l.001.002v.003l.001.002v.001l.001.002v.003l.001.002v.003l.001.002v.002l.001.001v.004s.001 0 0 0l.001.001v.002l.001.002v.003l.001.002v.001l.001.002v.003l.001.002v.001l.001.002v.003l.001.002v.003l.001.002v.001l.001.002v.003l.001.002v.002l.001.001v.003l.001.002v.003s.001 0 0 0l.001.002v.001l.001.002v.003l.001.002v.003l.001.002v.001l.001.002v.003l.001.002v.003s.001 0 0 0l.001.001v.002l.001.001v.004l.001.001v.003l.001.002v.001l.001.002v.003l.001.002v.003l.001.001v.002l.001.001v.004l.001.001v.003l.001.002v.003s.001 0 0 0l.001.001v.002l.001.001v.003l.001.002v.003l.001.002v.003l.001.001v.002l.001.001v.003l.001.002v.003l.001.001v.003l.001.002v.003l.001.001v.003s.001 0 0 0l.001.002v.001l.001.002v.002l.001.002v.002s0 .001 0 0l.001.002v.003l.001.002v.003l.001.001v.003l.001.002v.003l.001.001v.001l.001.002v.003l.001.001v.003l.001.002v.002l.001.002v.003l.001.001v.003l.001.002s0 .001 0 0v.002l.001.002v.003l.001.001v.003l.001.001v.003l.001.002s0 .001 0 0v.002l.001.002v.003h.001s0 .001 0 0v.004l.001.001v.003l.001.001v.003l.001.001v.003l.001.002s0 .001 0 0v.002l.001.002v.002l.001.002v.003s.001.001 0 0l.001.002v.002s.001.001 0 0l.001.002v.003l.001.001v.003l.001.001v.003l.001.001v.003l.001.001v.003l.001.001v.003l.001.001v.004l.001.002v.002l.001.002s0 .001 0 0v.002l.001.002s0 .001 0 0v.002l.001.002s0 .001 0 0v.003s.001 0 0 0l.001.002v.002l.001.002s0 .001 0 0v.002l.001.001v.003l.001.001v.002s0 .001 0 0v.002l.001.001v.002l1.894-.448 1.892-.448v-.003s0-.001 0 0l-.001-.002v-.002s0-.001 0 0v-.002l-.001-.001v-.002s0-.001 0 0l-.001-.002v-.002s0-.001 0 0l-.001-.002v-.004s-.001 0 0 0l-.001-.001v-.002s0-.001 0 0l-.001-.002v-.002s0-.001 0 0l-.001-.002v-.003l-.001-.001v-.003l-.001-.001v-.004s-.001 0 0 0l-.001-.001v-.003l-.001-.001v-.003l-.001-.001v-.003l-.001-.001v-.003l-.001-.001v-.003l-.001-.001v-.003l-.001-.002s0-.001 0 0v-.004s-.001 0 0 0h-.001s0-.001 0 0v-.004l-.001-.001v-.003l-.001-.001v-.002s0-.001 0 0l-.001-.002v-.003l-.001-.001v-.003l-.001-.002v-.002l-.001-.002v-.003l-.001-.001v-.003l-.001-.001v-.003l-.001-.001v-.003l-.001-.002v-.003h-.001s0-.001 0 0v-.004l-.001-.001v-.003l-.001-.001v-.003l-.001-.002v-.003l-.001-.001v-.002s0-.001 0 0l-.001-.002v-.003s-.001 0 0 0l-.001-.002v-.003s-.001 0 0 0l-.001-.001v-.002l-.001-.001v-.003l-.001-.001v-.003l-.001-.002v-.003l-.001-.001v-.003l-.001-.002v-.003l-.001-.001v-.003s-.001 0 0 0l-.001-.002-.001-.001v-.003l-.001-.002v-.003l-.001-.001v-.003l-.001-.002v-.003l-.001-.001v-.004s-.001 0 0 0l-.001-.001v-.002l-.001-.001v-.003l-.001-.002v-.003l-.001-.001v-.003s-.001 0 0 0l-.001-.002v-.001l-.001-.002v-.003l-.001-.001v-.004l-.001-.001v-.003s-.001 0 0 0l-.001-.002v-.001l-.001-.002v-.003l-.001-.002v-.003l-.001-.001v-.002l-.001-.001v-.004l-.001-.001v-.003l-.001-.002v-.001l-.001-.002v-.003l-.001-.002v-.003l-.001-.002v-.001l-.001-.002v-.003l-.001-.001v-.004l-.001-.001v-.002l-.001-.002v-.003l-.001-.001v-.004s-.001 0 0 0l-.001-.001v-.002l-.001-.001v-.004l-.001-.001v-.002l-.001-.002v-.003l-.001-.001v-.002l-.001-.002v-.003l-.001-.002v-.003s-.001 0 0 0l-.001-.002v-.001l-.001-.002v-.003l-.001-.002v-.001l-.001-.002v-.003l-.001-.002v-.002l-.001-.001v-.004l-.001-.001v-.002l-.001-.002v-.003l-.001-.002v-.002l-.001-.001v-.004l-.001-.001v-.002l-.001-.002V30.6zm.09.38-1.892.448c.22.927.62 2.038 1.51 2.744l1.207-1.525 1.208-1.525c.117.093.12.148.065.036a3 3 0 0 1-.205-.627zm.825 1.667-1.158 1.562c1.06.787 2.33.704 3.276.48l-.448-1.893-.45-1.893a2 2 0 0 1-.328.05h-.023s.008 0 .023.004a.8.8 0 0 1 .267.128zm1.67.149.448 1.893a6.9 6.9 0 0 0 3.042-1.562l-1.292-1.454-1.292-1.454c-.36.32-.798.552-1.355.684zm2.198-1.123 1.305 1.442c.873-.79 1.65-1.936 2.368-3.285l-1.718-.913-1.718-.913c-.63 1.187-1.156 1.878-1.542 2.227zm1.955-2.756.449 1.893.922-.219-.448-1.893-.449-1.892-.922.218zm.923-.219-1.847-.612c-.588 1.773-1.31 3.041-2.104 3.905l1.432 1.317 1.432 1.316c1.272-1.384 2.228-3.188 2.933-5.314zm-2.52 4.61-1.418-1.331a5.43 5.43 0 0 1-2.784 1.617l.449 1.893.448 1.892a9.3 9.3 0 0 0 4.724-2.74zm-3.753 2.179-.449-1.893c-1.077.255-1.646.1-1.962-.096l-1.021 1.656-1.021 1.655c1.473.91 3.192.975 4.901.57zm-3.432-.333 1.042-1.643c-.298-.189-.702-.643-.973-1.784l-1.893.448-1.892.449c.406 1.717 1.218 3.248 2.674 4.172zm-1.824-2.979 1.893-.448c-.197-.832-.284-1.784-.239-2.87l-1.943-.08-1.944-.081c-.057 1.384.049 2.698.34 3.928zm-.29-3.399 1.944.08c.045-1.085.21-2.046.48-2.893l-1.854-.589-1.854-.59c-.387 1.22-.601 2.527-.659 3.912l1.944.08Zm.57-3.402 1.847.612c.331-1 .783-1.712 1.309-2.216l-1.347-1.404-1.346-1.404c-1.063 1.019-1.816 2.313-2.31 3.8zm1.81-3.008 1.354 1.396c.541-.525 1.205-.892 2.042-1.09l-.448-1.893-.449-1.893c-1.479.35-2.78 1.042-3.854 2.084zm2.948-1.587.448 1.892c.367-.086.624-.104.792-.096.16.009.217.04.217.04l.922-1.712.922-1.713c-1.182-.637-2.525-.594-3.75-.304zm2.38.124-.856 1.747c-.017-.008-.014-.017.013.022.036.052.109.184.172.453l1.893-.449 1.893-.448c-.294-1.241-.965-2.438-2.261-3.072zm-1.822 1.262-.449-1.892c-.911.216-1.55.807-1.972 1.406-.416.588-.707 1.298-.924 2.033l1.864.552 1.865.553c.154-.519.296-.786.374-.896.07-.101-.014.067-.31.137zm-1.48 2.1-1.868-.543c-.428 1.473-.59 3.107-.528 4.874l1.944-.069 1.944-.069c-.051-1.454.088-2.661.375-3.65l-1.867-.544Zm-.452 4.262.578 1.858c1.583-.493 2.764-1.57 3.54-3.034l-1.718-.912-1.718-.91c-.36.676-.78.991-1.26 1.14zm2.4-2.087 1.717.913c.786-1.477 1.033-3.067.65-4.684l-1.893.448-1.893.449c.148.625.08 1.25-.298 1.96l1.717.913Zm.474-3.323 1.892-.448c-.115-.487-.337-1.175-.862-1.713l-1.392 1.359-1.393 1.358a1 1 0 0 1-.176-.241c-.005-.01.013.028.038.134zm-.362-.802 1.392-1.359c-.691-.708-1.612-.875-2.42-.683l.448 1.892.448 1.893c-.125.03-.344.055-.612-.013a1.4 1.4 0 0 1-.649-.372l1.392-1.358Z"/><path fill="#3D2101" d="M23.14 29.584q-.495-2.09.967-3.898 1.49-1.815 4.15-2.445 2.063-.49 3.401.082 1.366.566 1.74 2.139.288 1.22-.155 2.129-.417.9-1.421 1.139-.38.09-.738.031a1.56 1.56 0 0 1-.646-.305q.465-.454.637-1.183.199-.735.032-1.44-.207-.87-.831-1.208-.631-.366-1.608-.135-1.167.277-1.691 1.089-.498.805-.22 1.972.225.95.919 1.703.688.725 2.656 1.778 2.588 1.365 3.594 2.587 1 1.196 1.399 2.879.733 3.093-.974 5.446-1.706 2.354-5.044 3.145-2.66.63-4.495-.225-1.836-.854-2.364-3.08-.462-1.953.408-3.478.871-1.526 2.527-1.917 1.031-.245 1.798.09.76.306 1.014 1.135-1.41.334-2.146 1.225-.707.885-.424 2.078.27 1.14 1.149 1.705t2.073.283q1.41-.335 2.048-1.517.637-1.184.245-2.838a5.65 5.65 0 0 0-1.15-2.307q-.845-1.032-3.1-2.562-2.04-1.35-2.786-2.205-.727-.888-.964-1.892m14.072 9.762a7 7 0 0 1-.132-.8q-.055-.474-.069-1.015l-.318-14.283 3.888-1.495.352 15.393q.003.258.028.48.017.198.069.414.13.543.43.73.324.152.92.01.76-.18 1.284-.991.518-.84.593-1.975l1.14-.27q-.284 2.675-1.447 4.298-1.163 1.622-3.062 2.072-1.358.323-2.343-.333-.966-.688-1.333-2.235M47.897 21.94a2.08 2.08 0 0 1-.291 1.674 2.13 2.13 0 0 1-1.372.984 2.13 2.13 0 0 1-1.668-.264 2.13 2.13 0 0 1-.984-1.372 2.13 2.13 0 0 1 .264-1.667q.47-.8 1.365-1.012a2.08 2.08 0 0 1 1.674.292q.8.47 1.012 1.365m-3.583 15.723a7 7 0 0 1-.132-.8q-.056-.474-.069-1.015l-.218-9.148 3.907-.926.233 9.69q.003.255.028.48.017.196.069.413.13.543.43.73.323.152.92.01.76-.18 1.284-.991.518-.84.593-1.975l1.14-.27q-.284 2.675-1.447 4.298-1.162 1.622-3.063 2.072-1.356.323-2.342-.333-.966-.689-1.333-2.235m14.747-12.178q.219.923-.06 1.562a1.25 1.25 0 0 1-.909.76 1.5 1.5 0 0 1-.48.027 2 2 0 0 1-.547-.128q.06-.473.045-.9a4 4 0 0 0-.099-.778q-.128-.542-.383-.77-.26-.252-.64-.163-1.194.284-1.678 3.321-.49 3.01.095 5.48.296 1.248.825 1.668.556.413 1.669.149a5 5 0 0 0 2.199-1.123q.943-.855 1.955-2.756l.922-.219q-.97 2.925-2.519 4.61a7.4 7.4 0 0 1-3.754 2.179q-2.088.495-3.432-.333-1.316-.835-1.823-2.979-.367-1.546-.317-3.392.077-1.853.597-3.41.618-1.865 1.809-3.007 1.212-1.175 2.921-1.58 1.492-.355 2.407.117.907.443 1.197 1.665m10.44-2.36q.534 2.253-.913 4.372-1.452 2.093-3.971 2.833.082.468.112.719.052.215.09.38.297 1.247.825 1.667.557.413 1.67.149a5 5 0 0 0 2.198-1.123q.945-.855 1.955-2.756l.923-.219q-.97 2.924-2.52 4.61a7.4 7.4 0 0 1-3.753 2.179q-2.09.495-3.432-.333-1.315-.835-1.824-2.979-.366-1.546-.29-3.399.078-1.852.57-3.402.618-1.866 1.81-3.008 1.21-1.176 2.948-1.587 1.492-.354 2.38.124.907.444 1.222 1.773m-3.044-.51q-.923.218-1.48 2.099-.537 1.846-.452 4.262 1.548-.481 2.4-2.087.873-1.64.474-3.323-.135-.57-.362-.802-.228-.233-.58-.15Z"/></svg>