<svg xmlns="http://www.w3.org/2000/svg" width="56" height="56" fill="none"><g fill="#fff" fill-rule="evenodd" clip-path="url(#a)" clip-rule="evenodd"><path d="M16.93 14.977a1.954 1.954 0 0 1-3.907 0C13.023 6.71 19.733 0 28 0s14.977 6.71 14.977 14.977a1.954 1.954 0 0 1-3.907 0c0-6.11-4.96-11.07-11.07-11.07s-11.07 4.96-11.07 11.07"/><path d="M39.724 9.468a1.954 1.954 0 0 1-1.04-3.766c1.16-.32 2.38-.493 3.642-.493C49.874 5.21 56 11.335 56 18.884c0 5.451-3.196 10.16-7.814 12.356v17.597A7.16 7.16 0 0 1 41.023 56H14.977a7.16 7.16 0 0 1-7.163-7.163V31.24C3.196 29.044 0 24.335 0 18.884 0 11.335 6.126 5.209 13.674 5.209c1.261 0 2.483.172 3.642.492a1.954 1.954 0 0 1-1.04 3.766 9.7 9.7 0 0 0-2.602-.35c-5.391 0-9.767 4.375-9.767 9.767 0 4.25 2.72 7.868 6.512 9.212a1.95 1.95 0 0 1 1.302 1.842v18.899a3.257 3.257 0 0 0 3.256 3.256h26.046a3.257 3.257 0 0 0 3.256-3.256v-18.9a1.95 1.95 0 0 1 1.302-1.84c3.793-1.345 6.512-4.963 6.512-9.213 0-5.392-4.376-9.768-9.767-9.768-.902 0-1.774.123-2.602.352"/><path d="M46.233 41.674a1.954 1.954 0 0 1 0 3.907H9.767a1.954 1.954 0 0 1 0-3.907zM26.047 21.488a1.954 1.954 0 0 1 3.906 0v7.814a1.954 1.954 0 0 1-3.906 0zm12.84 11.245a1.956 1.956 0 0 1-2.596.945 1.956 1.956 0 0 1-.946-2.597L38.648 24a1.956 1.956 0 0 1 2.597-.945 1.956 1.956 0 0 1 .945 2.597zm-18.232-1.652a1.956 1.956 0 0 1-.946 2.597 1.956 1.956 0 0 1-2.596-.945L13.81 25.65a1.956 1.956 0 0 1 .945-2.597 1.956 1.956 0 0 1 2.597.945z"/></g><defs><clipPath id="a"><path fill="#fff" d="M0 0h56v56H0z"/></clipPath></defs></svg>