<svg xmlns="http://www.w3.org/2000/svg" width="61" height="62" fill="none"><path fill="#FFDF77" d="m44.711 50.083-36.99-24.39a3.466 3.466 0 0 0-4.795.984l-.763 1.156c-3.686 5.59-2.637 10.7 2.954 14.386l25.43 16.768c5.59 3.686 10.7 2.637 14.387-2.953l.762-1.156a3.466 3.466 0 0 0-.985-4.795m-3.245 3.665c-2.404 3.646-4.986 4.176-8.632 1.772L7.404 38.75c-3.647-2.404-4.177-4.985-1.773-8.631l.381-.578L41.847 53.17zM14.58 15.289l36.99 24.39a3.466 3.466 0 0 0 4.796-.984l.762-1.156c7.176-10.884 3.42-23.452-9.571-32.018s-26.023-7.067-33.2 3.817l-.762 1.156a3.466 3.466 0 0 0 .985 4.795m3.245-3.664c5.877-8.913 16.394-9.922 27.445-2.636 11.05 7.287 14.266 17.351 8.39 26.264l-.381.578-35.835-23.629zM51.09 49.214a2.08 2.08 0 0 1-2.878.59c-2.43-1.602-2.9-3.694-3.245-5.225-.313-1.38-.493-2.02-1.484-2.673-.992-.654-1.65-.567-3.043-.311-1.54.284-3.651.673-6.084-.93s-2.903-3.696-3.251-5.226c-.314-1.38-.495-2.021-1.487-2.675s-1.65-.567-3.042-.311c-1.543.286-3.656.674-6.088-.93-2.432-1.603-2.908-3.698-3.256-5.228-.314-1.385-.498-2.027-1.495-2.684-.996-.657-1.656-.571-3.05-.313-1.543.283-3.657.67-6.089-.933a2.078 2.078 0 0 1 2.287-3.468c.998.659 1.656.572 3.05.314 1.544-.283 3.657-.671 6.089.933 2.432 1.603 2.91 3.7 3.258 5.23.314 1.38.495 2.021 1.492 2.678.996.657 1.652.568 3.044.313 1.541-.285 3.654-.673 6.084.93 2.43 1.602 2.906 3.697 3.253 5.229.313 1.38.492 2.02 1.484 2.674s1.65.566 3.042.31c1.541-.284 3.652-.673 6.084.93s2.902 3.699 3.248 5.227c.311 1.38.493 2.02 1.482 2.672a2.08 2.08 0 0 1 .59 2.877zM33.1 9.986a2.066 2.066 0 0 1-1.616 2.451 2.07 2.07 0 0 1-2.448-1.614 2.1 2.1 0 0 1 .3-1.561c.152-.231.335-.409.58-.579.23-.147.467-.256.736-.31 1.053-.235 2.228.54 2.448 1.613m10.772 3.786c.113.539.008 1.1-.297 1.562a2.15 2.15 0 0 1-1.319.888 2.1 2.1 0 0 1-1.558-.297 2.07 2.07 0 0 1-.89-1.317 2.2 2.2 0 0 1-.004-.798c.06-.293.15-.531.303-.762a2.075 2.075 0 0 1 3.456-.01c.163.206.256.467.31.734m7.723 8.41c.113.538.008 1.1-.297 1.562-.152.23-.353.43-.583.577s-.467.256-.736.311a2.1 2.1 0 0 1-1.558-.298 2.07 2.07 0 0 1-.89-1.316c-.055-.269-.072-.545-.004-.799.045-.269.151-.53.303-.762.305-.462.78-.78 1.317-.89.782-.18 1.675.176 2.14.88.147.23.255.468.308.735"/></svg>